<?xml version="1.0" encoding="UTF-8"?><svg id="Layer_1" xmlns="http://www.w3.org/2000/svg" xmlns:xlink="http://www.w3.org/1999/xlink" viewBox="0 0 1024 1024"><defs><style>.cls-1{fill:url(#linear-gradient);stroke:#000;stroke-miterlimit:10;}.cls-2{fill:#fff;}</style><linearGradient id="linear-gradient" x1="512" y1="0" x2="512" y2="1024" gradientUnits="userSpaceOnUse"><stop offset="0" stop-color="#f452ff"/><stop offset="1" stop-color="#832bc1"/></linearGradient></defs><rect class="cls-1" x="0" width="1024" height="1024" rx="100" ry="100"/><path class="cls-2" d="M617.21,656.03c-1.64-14.79-6.57-25.48-16.44-35.34-18.49-19.31-50.95-32.05-89.17-32.05s-70.68,12.33-89.17,32.05c-9.45,10.27-14.79,20.55-16.44,35.34-3.29,28.76-1.23,53.42,2.05,93.28,3.29,37.8,9.45,88.35,17.26,139.3,5.75,36.57,10.27,56.3,14.38,70.27,6.99,23.01,32.05,42.74,71.91,42.74s65.34-20.14,71.91-42.74c4.11-13.97,8.63-33.7,14.38-70.27,7.81-51.36,13.97-101.5,17.26-139.3,3.7-39.86,5.34-64.51,2.05-93.28Z"/><path class="cls-2" d="M612.69,446.46c0,55.89-45.2,101.09-101.09,101.09s-101.09-45.2-101.09-101.09,45.2-101.09,101.09-101.09,101.09,45.61,101.09,101.09Z"/><path class="cls-2" d="M510.37,48.28c-235.87.82-429,192.31-432.29,428.18-2.47,191.08,119.58,354.62,290.11,414.62,4.11,1.64,8.22-2.05,7.81-6.16-2.05-14.79-4.52-29.59-6.16-44.38-.82-5.34-4.11-9.45-8.63-11.92-134.78-58.76-228.88-193.95-227.24-350.51,2.05-205.46,169.71-372.7,374.76-374.35,209.98-1.64,381.33,168.48,381.33,378.05,0,154.92-93.69,288.05-227.24,346.82-4.93,2.05-8.22,6.57-8.63,11.92-2.05,14.79-4.11,29.59-6.16,44.38-.82,4.52,3.7,7.81,7.81,6.16,168.89-59.17,290.11-220.25,290.11-409.28-.82-239.15-196.01-433.93-435.57-433.52Z"/><path class="cls-2" d="M500.51,192.1c-153.68,5.75-276.96,132.73-279.01,286.41-1.23,101.09,49.31,190.67,126.97,243.68,3.7,2.47,9.04-.41,9.04-4.93-1.23-17.67-1.23-33.28-.41-49.72.41-5.34-1.64-10.27-5.75-13.97-47.26-44.38-76.02-107.66-74.38-177.52,3.29-123.28,102.32-223.54,225.59-228.47,133.96-5.34,244.09,102.32,244.09,234.63,0,67.39-28.76,128.21-74.38,171.35-3.7,3.7-5.75,8.63-5.75,13.97.82,16.03.41,31.64-.41,49.31-.41,4.52,4.93,7.81,9.04,4.93,76.43-52.19,126.97-140.53,126.97-239.98.41-163.55-136.43-296.27-301.61-289.7Z"/></svg>