<?xml version="1.0" encoding="UTF-8"?><svg id="Layer_1" xmlns="http://www.w3.org/2000/svg" xmlns:xlink="http://www.w3.org/1999/xlink" viewBox="0 0 1024 1024"><defs><style>.cls-1{fill:#fff;}.cls-2{fill:url(#New_Gradient_Swatch_2);stroke:#000;stroke-miterlimit:10;}</style><linearGradient id="New_Gradient_Swatch_2" x1="0" y1="512" x2="1024" y2="512" gradientUnits="userSpaceOnUse"><stop offset="0" stop-color="#0dae71"/><stop offset="1" stop-color="#0d9376"/></linearGradient></defs><rect class="cls-2" x="0" width="1024" height="1024" rx="100" ry="100"/><path class="cls-1" d="M183.46,858.89c-51.8-51.29-90.81-114.3-113.38-184.03-29.81-92.09-29.42-191.17,1.12-283.03,30.53-91.86,89.64-171.78,168.86-228.3,79.21-56.52,174.45-86.75,272.07-86.34,97.62.41,192.6,31.43,271.33,88.61,78.73,57.18,137.16,137.59,166.91,229.7,29.75,92.11,29.3,191.19-1.29,283.03-23.16,69.54-62.7,132.22-114.94,183.08-22.05,21.46-33.07,32.2-49.26,30.81-16.19-1.39-26.19-15.16-46.21-42.72l-43.23-59.53c-12.61-17.36-18.91-26.04-18.28-34.68.63-8.64,9.24-17.46,26.45-35.09,28.04-28.72,49.36-63.48,62.13-101.81,17.81-53.48,18.08-111.17.75-164.8-17.32-53.63-51.35-100.46-97.19-133.75-45.84-33.3-101.15-51.36-157.99-51.6-56.84-.24-112.3,17.36-158.42,50.28-46.12,32.91-80.54,79.45-98.32,132.94-17.78,53.49-18.01,111.18-.65,164.8,12.44,38.43,33.46,73.36,61.25,102.32,17.07,17.78,25.6,26.67,26.16,35.31.56,8.64-5.82,17.27-18.57,34.52l-43.74,59.18c-20.24,27.38-30.36,41.08-46.56,42.32-16.2,1.25-27.13-9.58-48.99-31.22Z"/><path class="cls-1" d="M640.53,527.51c0,71.99-58.36,130.36-130.36,130.36s-130.36-58.36-130.36-130.36,58.36-130.36,130.36-130.36,130.36,58.36,130.36,130.36Z"/></svg>