<?xml version="1.0" encoding="UTF-8"?><svg id="Layer_1" xmlns="http://www.w3.org/2000/svg" xmlns:xlink="http://www.w3.org/1999/xlink" viewBox="0 0 1024 1024"><defs><style>.cls-1{fill:url(#linear-gradient);stroke:#000;stroke-miterlimit:10;}.cls-2{fill:#fff;}</style><linearGradient id="linear-gradient" x1="513.77" y1="-1.42" x2="510.23" y2="1025.42" gradientUnits="userSpaceOnUse"><stop offset="0" stop-color="#b30000"/><stop offset="1" stop-color="#e50000"/></linearGradient></defs><rect class="cls-1" x="0" width="1024" height="1024" rx="100" ry="100"/><path class="cls-2" d="M643.82,888.46c-3.69-3.69-3.25-13.82-.49-16.48,185.97-201.44,185.24-511.75-1.57-712.29-.94-2.36-.16-11.34,1.35-14.23l78.78-78.73c3.72-2.63,13.37-2.47,15.74-.22,237.45,252.34,237.55,647.99-.06,900.22-2.27,2.5-12.5,2.97-15.39.08l-78.35-78.35Z"/><path class="cls-2" d="M223.29,705.29l-116.18-.44c-2.54,0-8.63-1.77-10.21-3.71s-2.45-7.7-2.45-11.59l.31-356.91c52.53-.35,98.7-2.44,147.68.38,102.15,5.87,178.29,95.64,173.47,194.57-4.91,100.8-88.58,178.11-192.63,177.71ZM247.63,619.4c47.86-12.93,77.11-58,76.23-104.27-.88-45.71-31.91-89.41-78.33-100.73-23.17-5.65-47.1-4.06-70.51-.06l.16,206.24c24.92,2.79,48.29,5.35,72.46-1.18Z"/><path class="cls-2" d="M547.55,776.63l-83.33-84.56c89.69-101.52,91.28-247.41.3-350.12l85.66-87.59c2.91-2.98,13.46-1.6,16.17,1.44,132.3,148.46,132.32,373.25-.01,521.68-4.12,4.62-13.85,4.16-18.79-.85Z"/></svg>