<?xml version="1.0" encoding="UTF-8"?>
<svg id="Layer_1" data-name="Layer 1" xmlns="http://www.w3.org/2000/svg" xmlns:xlink="http://www.w3.org/1999/xlink" viewBox="0 0 630 630">
  <defs>
    <style>
      .cls-1 {
        fill: #b18f8f;
      }

      .cls-2 {
        fill: #9e8e8e;
      }

      .cls-3 {
        fill: #a86363;
      }

      .cls-4 {
        fill: #970000;
      }

      .cls-5 {
        fill: #e30101;
      }

      .cls-6 {
        fill: #e10303;
      }

      .cls-7 {
        fill: #949090;
      }

      .cls-8 {
        fill: #e70000;
      }

      .cls-9 {
        fill: #d50202;
      }

      .cls-10 {
        fill: #be0000;
      }

      .cls-11 {
        fill: #ed0000;
      }

      .cls-12 {
        fill: #a00303;
      }

      .cls-13 {
        fill: #a50000;
      }

      .cls-14 {
        fill: #948989;
      }

      .cls-15 {
        fill: #948787;
      }

      .cls-16 {
        fill: #ef0000;
      }

      .cls-17 {
        fill: #da0000;
      }

      .cls-18 {
        fill: #9f0202;
      }

      .cls-19 {
        fill: #ea0101;
      }

      .cls-20 {
        fill: #a70000;
      }

      .cls-21 {
        fill: #dc0000;
      }

      .cls-22 {
        fill: #980000;
      }

      .cls-23 {
        fill: #ac8a8a;
      }

      .cls-24 {
        fill: #db0202;
      }

      .cls-25 {
        fill: #940000;
      }

      .cls-26 {
        fill: #870000;
      }

      .cls-27 {
        fill: #ac8484;
      }

      .cls-28 {
        fill: #ac8080;
      }

      .cls-29 {
        fill: #ac8b8b;
      }

      .cls-30 {
        fill: #c10000;
      }

      .cls-31 {
        fill: #e00404;
      }

      .cls-32 {
        fill: #b00;
      }

      .cls-33 {
        fill: #949191;
      }

      .cls-34 {
        fill: #9e0000;
      }

      .cls-35 {
        fill: #ca0000;
      }

      .cls-36 {
        fill: #ea0000;
      }

      .cls-37 {
        fill: #a77;
      }

      .cls-38 {
        fill: #ac7777;
      }

      .cls-39 {
        fill: #fefefe;
      }

      .cls-40 {
        fill: #af5c5c;
      }

      .cls-41 {
        fill: url(#linear-gradient);
      }

      .cls-42 {
        fill: #a48686;
      }

      .cls-43 {
        fill: #bd6c6c;
      }

      .cls-44 {
        fill: #958a8a;
      }
    </style>
    <linearGradient id="linear-gradient" x1="570.46" y1="442.13" x2="562.38" y2="946.07" gradientTransform="translate(-251 -379)" gradientUnits="userSpaceOnUse">
      <stop offset="0" stop-color="#ef0000"/>
      <stop offset=".5" stop-color="#eb0000"/>
      <stop offset="1" stop-color="#ab0000"/>
    </linearGradient>
  </defs>
  <path class="cls-40" d="M569,413c-.28.87-.62.86-1,0v-222c.28-.87.62-.86,1,0v222Z"/>
  <path class="cls-27" d="M62,204h-1s-.05-11.08-.05-11.08c0-1.06.38-1.81,1.05-1.92v13Z"/>
  <path class="cls-2" d="M63.01,457.98v4.02c-1.68-2.18-.98-5.31-.99-7.97,1.3.82.99,2.57.99,3.95Z"/>
  <path class="cls-38" d="M569,191h-1s0-6,0-6c.27-.88.6-.88,1.01-.02v6.02Z"/>
  <path class="cls-29" d="M569.01,184.98l-1.01.02v-5c1.47,1.17,1.01,3.3,1.01,4.98Z"/>
  <g>
    <path class="cls-38" d="M62,376c.85,10.84.85,23.07,0,34-.28.87-.62.86-1,0v-206c.28-.87.62-.86,1,0,.87,55.94.88,115.69,0,172Z"/>
    <path class="cls-28" d="M64,163l-.03,2.04h-1.04c-.6-1.98.75-3.58.89-5.03l.18,2.99Z"/>
    <g>
      <path class="cls-41" d="M471,65c1.4-.99,4.21-.51,6.05.08,34.53,6.3,63.27,26.36,78.59,58.21,4.52,12.79,8.93,26.02,10.37,39.73.82,5.83,1.76,12.94,1.03,18.99-.92,35.38-.89,72.59-.03,108,.87,40.18.87,83.36,0,124,.33,8.2.66,16.54.99,25.02,1.05,2.15.61,5.47,0,7.98v12.03c-.28,1.56-.67,2.84-1.18,3.84l-.64,6.25c-1.94,21.37-9.95,43.05-24.37,59.49l-8.58,9.78c-.95,1.08-3.53,1.63-3.2,3.58-1.42,1.18-3.13,2.17-5.13,2.98.66,1.21-2.19,3.34-3.55,2.64-.31,1.28-1.06,2.16-2.13,2.87-22.27,14.72-49.02,19.74-75.41,19.5l-255.63.2c-28.42-.31-56.66-4.82-79.97-22.17-.54-.4-.83-1.12-1.05-1.94-1.4.21-2.8-.47-4.18-2.02-.12-.33-.65-.97-1-1.01l-3.18-2.82c-1.57-3.81-5.52-5.58-8.27-8.58-16.56-18.14-24.94-40.89-27.44-64.64.29-3.09.63-6.08,1-8.97-1-1.84-1.36-4.71-1.54-7.07-.29-25.11-.14-50.09.46-74.93-.88-27.97-.88-58.67,0-87,.88-36.38.88-74.6,0-111-.65-.3-.63-.63,0-1-.87-.57-.71-3.03,0-4-.05-2.75.27-5.4.96-7.96-.9-.25-.85-1.54.03-2.04l1.07-1.37c-.1-13.58,4.3-27.83,11.17-39.53l.5-3.28c2.59-4.42,4.79-10.04,9.38-12.91,6.12-8.18,13.96-16.29,22.69-21.85,1.77-1.89,3.11-4.25,6.3-4.98,12.09-7.56,25.27-11.66,38.87-14.05l5.93-1.02,1.17-.05c2.98-.87,7.03-.81,9.87-.04,7.53-.36,15.2-.8,23.01-1.31h238.34c12.79.44,25.68,1.23,38.69,2.37Z"/>
      <g>
        <path class="cls-33" d="M521.34,547.59c1.64-1.04,2.1-.4.96,1.22-1.05.74-2.04,2.6-3.93,3.67l-11.52,6.54c-17.93,8.27-37.08,12.55-57.52,12.58l-266.07.39c-4.48,0-7.88-1.49-12.41-1.21-4.88.3-10.06-.95-14.95-1.73-18.65-2.99-36.08-9.99-50.15-21.8-1.55-1.88-.68-2.47,1.4-1.21,25.1,17.93,51.48,22.3,83.04,22.29l253.6-.03c26.82,0,56.86-5.33,77.55-20.72Z"/>
        <path class="cls-25" d="M432,62h-185c-.87-.28-.86-.62,0-1h183.79c.94,0,1.24.63,1.21,1Z"/>
        <path class="cls-26" d="M247,61v1s-49.01.02-49.01.02c-.06-.41.36-1.03,1.08-1.03h47.93Z"/>
        <path class="cls-23" d="M62,439c-.4.06-1-.36-1-1.05v-27.95s.99,0,.99,0v29Z"/>
        <path class="cls-3" d="M568.97,439.03c-.29.87-.61.85-.98-.01-.83-8.09-.79-17.02,0-25.02v-1s1,0,1,0l-.02,26.03Z"/>
        <path class="cls-34" d="M171,63l-.04.94-9.87.04c.02-.65.76-1.04,1.83-1.03l8.08.05Z"/>
        <path class="cls-22" d="M470,64l-8.08.05c-1.07,0-1.81-.38-1.92-1.05l8.08-.05c1.06,0,1.81.38,1.92,1.05Z"/>
        <path class="cls-44" d="M530.02,541.97c.48,2.88-2.92,2.13-3.68,3.28-1.01.92-1.38,1.15-1.45-.3.6-2.1,2.89-2.86,5.13-2.98Z"/>
        <path class="cls-7" d="M526.34,545.25c-.85,1.28-2.17,3.01-4.04,3.57l-.96-1.22,3.55-2.64,1.45.3Z"/>
        <path class="cls-37" d="M568,447v-7.98s.97.01.97.01c0,2.66.68,5.79-.97,7.97Z"/>
        <path class="cls-14" d="M107.16,546.05l-1.4,1.21c-1.07-.9-2.71-1.59-2.78-3.24,1.9-.21,2.92,1.12,4.18,2.02Z"/>
        <path class="cls-4" d="M159.91,64.03c-1.41,1.46-3.91,1.09-5.93,1.02,1.38-1.45,4.28-.95,5.93-1.02Z"/>
        <path class="cls-26" d="M477.05,65.08l-6.05-.08.03-.97c2.02.07,4.42-.55,6.02,1.04Z"/>
        <path class="cls-42" d="M567,465.02l-.17-2.15c.6-.86-.77-3.27,1.16-3.84,0,2,.58,4.47-.99,5.99Z"/>
        <path class="cls-1" d="M568.08,171.01c-1.47-1.16-1.26-3.33-.92-5.11.68,1.48.94,3.3.92,5.11Z"/>
        <g>
          <path class="cls-16" d="M197.99,62.03c16.03-.9,33.09-.86,49.01-.02,60.24-.88,124.28-.88,185,0h10c4.98.37,9.98.7,15,1h3c3.32.36,6.66.69,10,1l1.03.03c.86.3.84.62-.03.97-4.82-.03-9.87-.52-14.93-.73l-23.78-1.01h-234.59s-26.74.68-26.74.68c-.87-.25-.83-.56.04-.94h2.01c5.63-.29,11.3-.53,17.03-.72,2.47-.69,5.38-.26,7.96-.26Z"/>
          <path class="cls-21" d="M567.15,165.89l.92,5.11-.07,8.99c.59,1.54.97,3.73,0,5,.87,1.28.76,4.49,0,6,.88,72.39.88,149.24,0,222,.66.29.64.63,0,1-.28.87-.62.86-1,0v-124c-.86-35.43-.89-72.56.03-108l-.84-8.1-.18-10.89c-.35-.4-.29-.76.15-1.08,1.62.73.54,2.96,1,3.96Z"/>
          <path class="cls-35" d="M63,178c.88,36.42.88,74.56,0,111v87c-.28.87-.62.86-1,0v-172c-.88-3.8-.86-8.93,0-13v-14c.3-.87.63-.86,1,0v1Z"/>
          <path class="cls-16" d="M64,163c-.56-.32-.62-1.32-.18-2.99,1.41-14.63,5.48-28.54,12.91-41.19.68,1.11,1.26,3.05.3,4.21-6.1,7.41-12.54,30.79-10.83,38.04.11.48-.16,2.45-.58,2.76-.39.28-1.24-.65-1.62-.84Z"/>
          <path class="cls-32" d="M64.09,458c-.32.87-.68.85-1.08-.02-.45-.96-.78-2.28-.99-3.95l-.03-15.03c-.83-9.44-.81-19.67,0-29v-34s1.01,0,1.01,0l.07,74.89,1.01,7.11Z"/>
          <path class="cls-16" d="M108.81,84.07c-4.64,4.96-11.06,8.58-15.11,14.58-.99,1.47-1.74,1.35-2.9,2.52l-4.68,4.75c.93-4.25,4.56-6.95,7.67-10.1,4.91-4.97,11.41-12.1,15.02-11.75Z"/>
          <path class="cls-16" d="M566.15,161.93l-.15,1.08c-.61-.48-1.24-1.49-1.36-2.7-1.25-11.86-4.37-22.93-9.12-33.84-.46-1.07-.06-2.51.12-3.18,5.82,12.09,9.82,25.31,10.51,38.64Z"/>
          <path class="cls-20" d="M190.04,62.28c-5.56,1.56-11.34.75-17.03.72.1-.67.85-1.06,1.92-1.06l15.1.34Z"/>
          <path class="cls-13" d="M457,63l-13.07.05c-1.07,0-1.82-.39-1.93-1.05l13.07-.05c1.07,0,1.82.38,1.93,1.05Z"/>
          <path class="cls-10" d="M63.01,173l-.95-2.02c.01-1.81,1.43-4.06.87-5.93.29-.88.64-.86,1.04,0-.04,2.65.71,5.78-.96,7.96Z"/>
          <path class="cls-18" d="M63.09,466.97l-.08-4.97c-.72-1.65-.72-2.99,0-4.02l1.08.02-.02,7.06c0,1.1-.41,1.83-.98,1.91Z"/>
          <path class="cls-43" d="M63.01,173v4s-1,0-1,0l.05-6.02c.8.34.95,1.18.95,2.02Z"/>
          <path class="cls-12" d="M567,465.02c-.01,1.37.3,3.15-.81,4.1.18-1.97-.51-4.58.64-6.25.76-.17.82.55.17,2.15Z"/>
          <path class="cls-15" d="M101.98,543.02c-.81-.02-2.1-.19-2.44-1.01l-.75-1.81c1.77.12,3.24,1.1,3.18,2.82Z"/>
          <path class="cls-16" d="M63,289v-111c.37-.04,1,.31,1,1.15v108.7c0,.84-.63,1.19-1,1.15Z"/>
          <path class="cls-16" d="M567,290c-.38.04-1.01-.31-1.01-1.15v-105.71c0-.83.63-1.19,1.03-1.15l-.03,108Z"/>
          <path class="cls-30" d="M567.99,439.02c-.41,0-1.01-.29-1.01-1.01v-24.01s1.01,0,1.01,0v25.02Z"/>
          <g>
            <g>
              <path class="cls-39" d="M151.2,235.92c16.02-.72,33.02-.86,49.1.2,43.25,1.56,77.14,37.06,77.23,79.42.09,42.35-33.1,78.06-76.19,79.89l-48.6.38c-4.91.04-13.26-3.5-13.26-10.11l-.07-139.71c0-6.47,7.32-10.09,11.79-10.07Z"/>
              <g>
                <path class="cls-6" d="M139.49,385.71l-.07-139.71.07,139.71Z"/>
                <path class="cls-19" d="M200.3,236.13l-49.1-.2c-.21-.27.06-.76.89-.94h46.82c.82.18,1.09.67,1.4,1.14Z"/>
                <path class="cls-9" d="M227.62,286.44c-2.56.75-3.68-1.48-5.23-2.72-9.76-7.82-21.1-10.49-33.37-9.87-5.48.28-10.92.72-13.91,5.57-.57-1.26-.84-2.76-.79-4.5,0-2.44,3.52-4.92,5.58-4.92l17.15.06c12.53.04,23.55,6.98,30.58,16.39Z"/>
                <polygon class="cls-31" points="175.11 279.41 174.47 355.95 174.31 274.91 175.11 279.41"/>
                <path class="cls-24" d="M238.13,313.02c-1.65-1.12-1.31-3.54-.77-5.24.22,1.65.8,3.33.77,5.24Z"/>
                <g>
                  <path class="cls-5" d="M236.04,324c-.64,2.09-.88,4.16-.73,6.21-5,15.2-17.69,27.27-34.31,29.88-5.88.92-12.73-.04-18.06.26-3.47-.93-5.37-2.78-5.69-5.54-2.23-24.77-2.44-49.44-.64-74.01,2-4.01,7.32-5,11.41-5.27,28.89-1.97,52.24,19.5,48.02,48.46Z"/>
                  <path class="cls-17" d="M227.62,286.44c4.82,6.44,8.65,13.24,9.73,21.34-.12,1.78-.05,3.62.77,5.24l-.05,4.01-1.04,5.93-.06,1.03c-.19.89-.5.87-.93.02-.69-14.34-2.53-22.95-13.04-34.26-9.39-10.11-24.69-14.63-37.99-12.11-5.89,1.12-9.03,5.87-9,11.32l.2,36,1.44,8.65c1.48,8.89-.19,15.5,2.22,23.42.45.92,3.33,1.74,3.07,3.35-2.52.14-8.46-.14-8.47-4.41-.13-25.59.09-51.11.64-76.54-.15-4.44,2.24-5.39,6.01-6.58,15.71-4.95,35.23,2.53,46.5,13.61Z"/>
                  <path class="cls-24" d="M235.31,330.21c-.85,0-1.8-.97-1.3-2.01l2.03-4.21.93-.02c-.14,2.28-.98,4.16-1.66,6.23Z"/>
                  <path class="cls-24" d="M237.04,322.96c.12-1.96-.6-4.56,1.04-5.93-.02,2,.45,4.46-1.04,5.93Z"/>
                  <g>
                    <path class="cls-8" d="M230.03,332.68c-5.22,11.64-14.69,21.17-27.3,24-5.04,1.13-11.35.37-16.26-.21-3.57-.42-4.07-5.84-4.39-8.34l-1.93-15.25-.69-27.22-.22-18.53c-.05-4.1,4.86-6.98,8.77-7.08,19.39-.52,33.03,6.65,41.75,24.14l1.82,7.07c.83,3.22.11,5.26-.24,7.96-.56,4.41.83,8.67-1.33,13.47Z"/>
                    <path class="cls-36" d="M190.14,351.29c-1.93-3.64-4.87-7.36-5.26-11.18l-2.09-20.14-1.22-12.82c-.35-3.69-2.95-6.51-.81-10.75,2.03-4.01-1.74-11.97,5.19-13.53,19.31-4.34,37.34,8.01,42.53,26.6,1.09,3.92,1.67,5.72,1.16,9.97-.79,6.53-2.02,13.92-7,19.05-.86.89-.96,4.18-2.87,4.43-4.75.63-8.04,3.63-11.9,5.91-5.1,3.01-10.93,2.57-17.71,2.46Z"/>
                    <path class="cls-11" d="M191.58,328c-3.09,0-4.95-2.59-4.36-5,.83-3.38-1.09-4.78-2.22-7.21-1.44-3.09-.08-7.09-.51-10.38-.81-6.19-1.06-12.75.21-18.69,1.88-2.86,6.8-2.47,9.79-2.27,17.52,1.22,30.2,13.86,31.92,31.35-4.83,3.95.03,12.08-6.61,12.1l-28.22.09Z"/>
                  </g>
                </g>
              </g>
            </g>
            <g>
              <path class="cls-39" d="M431.37,279.5c-1.1-6.79-1.92-11.87-3.64-17.81l-3.36-11.59c-9.29-32.05-24.77-58.68-46.4-83.9-3.8-4.43-2.31-10.95,1.46-14.72l24.09-24.09c3.78-3.78,11.53-5.02,15.24-.93,96.74,106.49,96.79,270.64-.03,377.11-3.4,3.74-11.03,3.18-14.7-.49l-25-24.99c-5.24-5.24-3.61-12.02.89-17.13l5.18-5.87c39.39-49.36,56.42-112.93,46.26-175.58Z"/>
              <path class="cls-39" d="M301.8,392.05c-.62-1.78-.38-3.63.11-5.41.91-2.15,1.83-3.61,3.29-5.57,11.39-15.34,17.96-33.09,20.82-52.29,4.29-28.83-4.16-57.87-21.71-81-3.35-4.42-4.04-10.31.09-14.48l24.85-25.05c5.21-5.25,12.91-4.71,17.45.88,44.32,54.57,49.8,130.49,14.37,191.29l-13.38,19.32c-3.68,5.32-11.65,8.32-16.8,3.25l-26.12-25.73c-1.64-1.61-2.06-3.77-2.97-5.22Z"/>
              <path class="cls-21" d="M301.8,392.05c-1.47-2.34-.74-3.4.11-5.41l-.11,5.41Z"/>
            </g>
          </g>
        </g>
      </g>
    </g>
  </g>
</svg>