<?xml version="1.0" encoding="UTF-8"?><svg id="Layer_1" xmlns="http://www.w3.org/2000/svg" xmlns:xlink="http://www.w3.org/1999/xlink" viewBox="0 0 1024 1024"><defs><style>.cls-1{fill:url(#linear-gradient-2);}.cls-2{fill:#fff;}.cls-3{fill:#f93;}.cls-4{fill:#fefefe;}.cls-5{fill:url(#linear-gradient);}</style><linearGradient id="linear-gradient" x1="0" y1="512" x2="1024" y2="512" gradientUnits="userSpaceOnUse"><stop offset="0" stop-color="#f93"/><stop offset="1" stop-color="#f73"/></linearGradient><linearGradient id="linear-gradient-2" x1="-2480.85" y1="3656.71" x2="-2468.16" y2="4589.74" gradientTransform="translate(2985.44 -3612)" gradientUnits="userSpaceOnUse"><stop offset="0" stop-color="#434e59"/><stop offset="1" stop-color="#292e33"/></linearGradient></defs><rect class="cls-5" x="0" width="1024" height="1024" rx="100" ry="100"/><path class="cls-1" d="M911.74,267.14l.71,1.49c.17.36.48,1.01.76,1.25.49.83,1.72,2.89,2.17,3.7l.73.9c90.63,150.91,84.3,353.16-15.1,498.26l-4.93,7.77-12.98,16.77c-.68.39-1.15,1-1.38,1.76l-.89,1.17c-1.12,1.11-2.1,2.37-2.93,3.78-12.17,15.68-25.79,30.28-39.88,44.2-3.51,2.8-6.83,5.89-9.96,9.28-.05.61-.59,1.31-1.64,2.1-.46-.14-.83.02-1.13.14l-4.58,4.33c.01.5-.31.94-.97,1.34-.2-.09-.42-.04-.57-.01l-.68.1-2.92,2.97c.22.45-.1.89-.98,1.31l-1,.25-6.82,5.76c-.12.82-.83,1.3-1.48.72l-2.18,2.24c.05.61-.91,1.13-1.47.74-1.11,1.21-2.32,2.22-3.66,3.04-.02.18-.07.44.16.79l-13.54,9.97-1.32.72-3.94,2.87-.5.09c-.47.78-.98,1.02-1.53.71-4.48,3.27-9.55,6.96-14.65,9.56.16.31.14.6.1.75-.79.62-1.28.64-1.47.06l-.73.74c-.01.89-.83,1.3-1.47.75l-2.2,1.54v.56c-.73.64-1.21.68-1.46.12l-2.94,2.17c-.13.56-.37.54-.73.02l-2.94,2.18c-.17.62-.41.61-.73.02l-2.21,1.53.02.58c-.77.61-1.26.64-1.48.07l-.73.74c-.17.6-.42.59-.73.01l-2.21,1.54.02.56c-.78.65-1.27.67-1.48.09l-.73.73c-.15.56-.73,1-1.73,1.31l-.51.07-.89.72c-.93.22-2.15.66-2.67,1.48l-1.7.72-32.71,15.58-1.54.74-7.28,2.83-1.5.87-17.53,6.63c-.58,0-1.15.12-1.49.64-106.56,38.12-224.78,36.21-330-5.29l-2.12-.66-1.56-.74-7.27-2.88-1.53-.78-8.7-3.62-4.46-2.33-6.55-2.85-10.37-5.14c-1.33-.99-2.6-1.87-4.26-2.2l-.84-.76c-.61-.35-1.3-.66-1.99-.82l-.16-.61-.82-.69c-.21.62-.45.61-.73,0l-.73-.73c0,.67-.5.64-1.49-.07l.02-.59-3.64-2.24c-.27.62-.52.59-.76-.06l-.73-.72c0,.67-.49.64-1.49-.07.04-.17.07-.43.02-.56l-2.2-1.55c-.24.62-.48.6-.73-.03l-.73-.72c-.64.63-1.39.12-1.46-.73-.95-.2-1.59-.73-2.2-1.46-.65.67-1.42.15-1.47-.73-.94-.2-1.58-.75-2.2-1.45-.48.74-1.32.14-1.46-.74-1.61-.63-3.1-1.74-4.41-2.92-.42.77-1.41.09-1.46-.75-4.58-2.55-8.96-5.51-13.13-8.86-.17.62-.43.59-.76-.01l-.55-.05-.96-.67c-.34-.37-.74-.65-1.22-.82l-3.92-2.84-1.26-.74-4.56-3.66c-.12-.09-.37-.07-.52-.08l-1.73-1.38c-.4-.24-.78-.59-1.26-.71l-1.68-1.49-1.21-.81-.91-.82-21.7-17.6-1.76-1.3-2.26-2.25c-.6-.46-1.03-1.36-1.95-1.51l-3.23-2.88c-4.31-4.22-13.98-13.89-18.31-18.25-.97-.97-2.33-1.52-2.92-2.87l-.97-.69c-20.52-21.18-39.03-44.42-55.31-69.06l-.81-.91c-.14-.46-.45-.88-.77-1.24l-.65-.98c-.94-2.1-2.43-3.93-3.7-5.83-.34-.56-1.05-1.72-1.4-2.27-.17-.42-.39-.94-.8-1.2l-1.45-2.43c-.05-.45-.37-.99-.76-1.23l-1.43-2.46c-.01-.16.01-.38-.07-.52-1.16-.93-1.8-2.31-2.2-3.71-2.47-4.63-8.15-15.22-10.66-19.7-67.18-129.8-69.32-286.2-5.67-418,1.14-1.83,2.1-3.78,2.88-5.85C254-26.7,721.25-46.68,911.74,267.14Z"/><path class="cls-4" d="M732.31,165.57l1.13.49,1.22.83c2.68,1.4,5.25,3.08,7.56,5.05l1.25.79.96.66c.39.27.73.65,1.2.81l3.93,2.85,1.22.81,3.92,2.85c.44.79,1.19,1.23,2.04,1.46l.88.75c.43.83,1.17,1.22,2.02,1.54l4.6,3.54c.43.8,1.11,1.34,2,1.53l1.65,1.44c.36.24.69.74,1.2.83l2.48,2.08c.33.82,1.11,1.36,1.95,1.56l3.15,2.82c.29.21.82.89,1.21.84l2.39,2.32c24.37,21.16,46.29,45.34,65.12,71.63l2.98,3.88c.17.46.44.92.83,1.2l.57,1.08c11.76,17.48,22.56,35.65,31.62,54.73,1.19,1.83,2.15,3.84,2.88,6.04,23.71,51.43,36.34,107.61,37.36,164.58,1.93,107.66-38.7,211.17-112.29,288.77l-4.24,4.59c-44.51,45.01-98.35,79.85-158.57,100.81-.85.3-1.22.39-1.52-.75l-86.91-324.37c36.57-27.54,41.76-79.78,11.46-114.08-28.93-32.55-79.19-35.18-111.21-5.73-36.09,33.1-33.51,90.26,5.75,119.72l-87.25,325.6c-55.83-19.21-106.49-50.39-149.09-90.92-78.68-74.85-124.75-177.91-127.09-286.73-1.86-70.76,14.79-140.72,47.82-202.84l1.46-3.13c.95-.31,1.06-1.96,1.54-2.59l2.1-3.96c.38-.29.69-.78.75-1.27l1.59-2.34c23.14-39.85,52.92-75.38,87.8-105.48l2.32-2.24c.96-.19,1.39-.94,2.02-1.5l2.38-2.18c.85-.21,1.55-.77,1.97-1.54l2.48-2.06c.47-.18.88-.48,1.19-.88l1.84-1.24c19.83-15.63,41.2-29.18,63.44-41.06,4.22-2.69,8.7-4.82,13.29-6.82,1.67-.6,3.64-1.06,5-2.22l3.09-1.5c1.19-.09,2.54-.75,3.55-1.4l1.55-.79c1.22-.25,2.56-.7,3.58-1.43l1.56-.7,13.12-5.14,1.64-.55c121.01-44.75,255.93-30.68,364.57,38.94Z"/><path class="cls-3" d="M636.95,638.86c-12.38-13.87-11.01-34.7,2.34-46.97,37.76-46.86,37.84-114.24-.1-160.99-12.79-11.77-14.49-31.47-3.55-45.16,5.72-7.07,13.81-10.92,22.62-10.86,8.58.05,16.45,4.39,22.04,10.94,61.09,71.6,61.49,177.78,1.17,249.99-5.39,6.45-12.57,11.56-21.03,12.19s-16.93-2.31-23.49-9.14Z"/><path class="cls-3" d="M740.6,722.22c-7.4-4.24-11.92-11.54-13.4-18.35-2.12-9.75,1.4-16.86,6.6-24.35,17.04-24.55,29.24-51.99,38.07-80.61,18.47-59.9,17.54-123.5-2.6-182.85-8.79-25.91-20.07-50.96-36.03-73.14-8.27-11.49-9.4-25.6.63-36.7,6.5-7.19,16.33-10.52,26.17-9.27s16.74,6.78,22.46,15.18c16.95,24.88,30.24,51.99,40.34,80.42,27.4,77.11,27.43,160.58.08,237.71-10.26,28.94-23.8,56.49-41.16,81.72-9.48,13.77-26.17,18.83-41.16,10.25Z"/><path class="cls-3" d="M288.79,716.21c-11.64,13.49-33.15,13.71-44.8.09-5.62-6.57-9.83-13.48-14.33-21.04-29.76-49.95-47.18-106.49-50.43-164.83-4.3-77.3,17.93-155.66,61.17-219.43,10.6-15.62,31.03-19.29,45.67-6.98,11.61,10.26,12.78,27.69,2.03,39.37-30.28,46-48.1,99.52-50.72,154.78-1.8,38.07,3.96,75.6,16.42,111.48,8.71,25.08,19.71,48.95,35.08,70.45,7.97,11.15,9.67,24.78-.09,36.1Z"/><path class="cls-3" d="M385.6,594.93c10.52,12.08,10.91,29.99.89,42.3-5.68,6.98-13.61,10.89-22.24,10.88s-16.46-4.09-22.01-10.55c-62.29-72.52-62-181.02.83-253.06,11.25-12.89,31.19-12.79,42.63.19,11.84,13.84,10.41,34.24-2.91,46.44-38.52,47.66-37.73,117.28,2.81,163.8Z"/><path class="cls-2" d="M512.07,837.53c7.95,7.75,15.69,15.7,23.21,23.83l34.35,34.35c6.17,5.57,12.15,11.37,17.94,17.39-.16.26.17,1.45-.06,1.61-50.78,9.84-102.27,9.89-153.39-.11l7.5-8.02,11.8-11.82,38.18-37.9,18.95-19.09c.34-.03.84.15,1.53-.22Z"/><polygon class="cls-2" points="511.03 795.81 474.89 759.81 511.05 625.18 547.23 759.52 511.03 795.81"/><path class="cls-2" d="M573.01,855.99c.44,1.28-.13,1.59-1.09.62l-19.63-19.08-8.14-8.32-12.33-12.58,24.18-24.1,17,63.46Z"/><polygon class="cls-2" points="490.31 816.47 448.8 857.84 466.09 792.49 490.31 816.47"/></svg>