<?xml version="1.0" encoding="UTF-8"?><svg id="Layer_1" xmlns="http://www.w3.org/2000/svg" viewBox="0 0 1024 1024"><defs><style>.cls-1{fill:#5c85dd;}.cls-2{fill:#fefefe;}</style></defs><rect class="cls-1" x="0" width="1024" height="1024" rx="100" ry="100"/><path class="cls-2" d="M377.09,805.36c70.76,34.61,137,36.25,212.41,21.56,30.08-9.82,57.64-22.07,86.83-36.33l56.49,59.04c-24.94,16.8-50.07,28.9-77.46,38.65-23.98,10.97-47.69,18.31-74.24,21.37-81.05,17.14-163.61,4.36-238.12-30.56-97.71-45.79-171.18-125.13-210.22-226.26-38.21-98.99-34.61-212.01,9.89-308.75,41.67-90.59,112.98-161.43,203.37-202.69,63.67-29.06,132.43-39.01,201.94-32.88,31.7,2.8,61.19,6.43,91.22,17.34,34.97,10.57,67.23,25.64,97.57,48.8l-57.11,58.49c-17.51-12.19-36.35-20.8-56.99-27.06-27.45-11.5-54.6-16.93-84.97-17.32-153.97-12.1-286.23,78.28-334.42,224-38.03,114.99-5.49,237.83,76.94,324.66,27.67,29.15,60.11,49.95,96.87,67.93Z"/><path class="cls-2" d="M688.13,538.17l-229.1,132.35c-11.32,6.54-23.23,5.79-33.72-.22-9.69-5.56-15.4-16.06-15.38-29.16l.4-263.1c.02-12.65,7.89-22.53,16.52-27.52,11.67-6.75,23.33-5.06,35,1.7l225.69,130.66c10.07,5.83,15.1,16.02,15.49,26.08.41,10.47-3.35,22.53-14.91,29.2Z"/><path class="cls-2" d="M798.32,799.14l-58.34-56.73c69.58-73.88,99.35-150.82,96.14-251.84-1.2-37.93-7.78-72.75-23.35-107.21-15.68-38.06-38.05-71.64-70.31-99.06l58.93-58.39c38.53,38.03,67.15,81.68,86.22,131.54,34.66,75.61,34.82,159.89,22.28,241.27-20.9,79.56-53.91,140.05-111.57,200.42Z"/></svg>