<?xml version="1.0" encoding="UTF-8"?>
<svg id="Layer_1" data-name="Layer 1" xmlns="http://www.w3.org/2000/svg" viewBox="0 0 225 225">
  <defs>
    <style>
      .cls-1 {
        fill: #5c84dc;
      }

      .cls-2 {
        fill: #b4c4ed;
      }

      .cls-3 {
        fill: #b3c4ed;
      }

      .cls-4 {
        fill: #fefefe;
      }
    </style>
  </defs>
  <path class="cls-1" d="M125,0c3.36.4,6.7.7,10.01.92,23.57-1.73,50.15,4.05,67.37,21.08,18.74,18.53,21.96,44.12,22.62,69.01v45c-.82,24.33-4.67,49.81-23.14,67.6-17.2,16.58-43.57,22.21-66.85,20.47-3.26.24-6.6.54-10.01.92h-36c-24.13-.8-49.12-4.5-66.99-22.53S.94,160.13,0,136l.25-45.89c.46-25.03,3.85-49.72,22.35-68.07C39.82,4.97,65.77-.49,89.39,1.02,92.49.38,95.69.05,99,0h26Z"/>
  <g>
    <path class="cls-3" d="M135.01,224.08v.92h-10.01c.12-.69.84-1.07,1.92-1.05l8.1.13Z"/>
    <g>
      <path class="cls-2" d="M99,0c-2.84.45-6,.93-9.61,1.02L89,0h10Z"/>
      <path class="cls-3" d="M135,0v.92s-8.09.13-8.09.13c-1.07.02-1.79-.36-1.91-1.05h10Z"/>
      <g>
        <path class="cls-4" d="M51.34,85c-16.26,35.72,1.54,76.89,37.8,91.02,19.06,7.43,39.95,5.23,57.93-5.24l11.95,12.72c-14.23,8.45-29.84,14.16-47.06,13.88-36.17-.59-67.62-23.9-79.24-58.21-8.99-26.54-4.01-55.48,13.29-77.94,16.08-20.88,41.8-33.98,69.39-32.75,15.78.7,30.69,4.16,44.2,14.01l-11.76,12.3c-10.19-6.59-21.56-9.36-33.75-9.54-27.5-.39-51.16,14.3-62.76,39.76Z"/>
        <path class="cls-4" d="M149.77,118.43l-49.01,28.28c-1.92,1.11-4.8.22-6.19-.68-1.72-1.12-3.01-3.27-3.01-6.02l.06-55c0-2.83,1.97-4.84,3.96-5.92s4.39-.8,6.79.59l47.37,27.49c2.03,1.18,2.94,3.63,3.01,5.42s-.58,4.45-2.99,5.84Z"/>
        <path class="cls-4" d="M160.3,160.88c14.04-14.34,20.92-32,20.25-51.91-.55-16.55-6.63-32.32-19.52-43.54l12.4-12.35c32.74,34.19,32.16,86.06-.92,119.7l-12.2-11.9Z"/>
      </g>
    </g>
  </g>
</svg>