<?xml version="1.0" encoding="UTF-8"?>
<svg id="Layer_1" data-name="Layer 1" xmlns="http://www.w3.org/2000/svg" xmlns:xlink="http://www.w3.org/1999/xlink" viewBox="0 0 512 512">
  <defs>
    <style>
      .cls-1 {
        fill: #fda118;
      }

      .cls-2 {
        fill: url(#linear-gradient-2);
      }

      .cls-3 {
        fill: #fd9a06;
      }

      .cls-4 {
        fill: #fd9f14;
      }

      .cls-5 {
        fill: #fba11d;
      }

      .cls-6 {
        fill: #fe9c0b;
      }

      .cls-7 {
        fill: url(#linear-gradient-3);
      }

      .cls-8 {
        fill: #fe9e10;
      }

      .cls-9 {
        fill: url(#linear-gradient);
      }

      .cls-10 {
        fill: #fe9701;
      }
    </style>
    <linearGradient id="linear-gradient" x1="446.82" y1="411.3" x2="447.72" y2="740.3" gradientTransform="translate(-192 -320)" gradientUnits="userSpaceOnUse">
      <stop offset="0" stop-color="#feba56"/>
      <stop offset=".33" stop-color="#fe9801"/>
      <stop offset=".68" stop-color="#fe9700"/>
      <stop offset="1" stop-color="#e17b0c"/>
    </linearGradient>
    <linearGradient id="linear-gradient-2" x1="562.71" y1="381.31" x2="564.27" y2="538.31" gradientTransform="translate(-192 -320)" gradientUnits="userSpaceOnUse">
      <stop offset="0" stop-color="#fec46d"/>
      <stop offset="1" stop-color="#fe9801"/>
    </linearGradient>
    <linearGradient id="linear-gradient-3" x1="533.1" y1="431.39" x2="533.64" y2="545.39" gradientTransform="translate(-192 -320)" gradientUnits="userSpaceOnUse">
      <stop offset="0" stop-color="#feb446"/>
      <stop offset="1" stop-color="#fe9700"/>
    </linearGradient>
  </defs>
  <path class="cls-9" d="M352.69,278.19c2.38-9.25,9.79-14.7,16.59-20.03,11.83-5.89,24.34-6.3,37.07.89,6.71,4.99,19.21,17.25,17.09,29.05-13.53,75.3-79.01,131.28-154.53,136.42-89.42,6.08-167.33-57.5-180.17-144.93-12.88-87.69,43.96-171.27,131.65-190.66,17.36-.83,32.7,11.23,36.93,27.55,4.06,17.58-4.81,35.34-21.45,42.31-28.21,5.68-51.57,24.64-64.04,46.6-16.5,29.06-17.19,60.96-4.63,89.15,17.47,39.2,57.17,61.87,99.38,57.97,40.86-3.77,75.51-33.22,86.1-74.3Z"/>
  <g>
    <path class="cls-2" d="M451.55,201.65c2.69,8.78-2.77,16.21-9.84,18.63-6.64,2.27-17.13-.06-19.69-8.37-18.27-59.25-64.29-106.13-124.11-123.71-6.9-4.68-8.99-12.62-5.51-20.07,3.41-6.72,11.13-10.41,19.3-7.79,66.58,21.4,119.21,73.87,139.86,141.3Z"/>
    <path class="cls-7" d="M400.44,210.85c3.12,9.05-4.39,16.39-11.59,18.43-8.43,2.38-15.83-2.93-18.88-11.32-13.56-37.23-43.11-65.12-79.78-79.09-7.43-2.83-10.08-11.95-7.8-18.76,1.96-5.85,9.41-13.05,17.07-10.44,47.26,16.1,84.56,53.53,100.98,101.18Z"/>
    <path class="cls-10" d="M337.52,198.89c4.64,6.71,9.58,13.72,11.7,21.95,1.79,6.93-3.78,13.93-9.03,16.24-6.31,2.76-15.09,1.6-18.55-4.62-6.38-11.48-12.4-22.73-23.08-30.59-1.61-2.33.3-3.36,2.7-4.11,11.33-.44,22.7-.52,34.11-.23l2.15,1.36Z"/>
    <path class="cls-6" d="M326.36,185.35l6.16,6.82c-2.44,2.18-5.57,3.05-9.4,2.63-8.99-.45-17.74-.17-26.25.82l-4.15-2.03c-1.59,1-3.13,1.19-4.62.58l-7.55-4.06c-2.71-1.84-3.68-3.96-2.92-6.38,16.35-.2,32.59.34,48.73,1.62Z"/>
    <path class="cls-3" d="M332.52,192.17c1.94,2.15,3.34,4.33,5,6.73-2.04,1.19-4.49.06-6.41.34-13.95,2.08-28.44-3.16-32.55,2.63l-10.46-7.7c1.14-1.41,2.56-1.93,3.62-2.37,2.03-.84,4.1,1.45,5.38,1.91,1.82-.16,4.23-1.38,6.53-1.18,9.9.85,19.44.43,28.9-.36Z"/>
    <path class="cls-8" d="M326.36,185.35c-2.51,2.9-5.42.81-8.34.8l-34.51-.15c-1.79,0-3.7-1.19-5.88-.43l2.92,4.54c-1.68-.9-2.67-1.57-3.73-2.77l-1.82-4.34c-.93-.45-1.09-1.72.08-1.98-.51-3.85,2.75-3.29,5.47-1.79,3.9-1.71,8.04-1.61,12.4.27,5.48-1.03,9.97-1.03,15.3.74,4.24-2.02,7.98-2.42,11.21-1.18l6.91,6.28Z"/>
    <path class="cls-1" d="M304.28,168.04c3.16,2.02,6.26,3.42,9.11,6.01.61,4.57-4.67,4.69-7.58,2.54-7.33,2.05-18.68,2.03-26.31,1.08-2.29-.28-4.08-.68-5.31-2.72-.56-7.87,5.98-11.35,13.24-7.63,5.71-.49,11.32-.26,16.84.72Z"/>
    <path class="cls-4" d="M313.39,174.05c1.93,1.76,4.05,3.19,6.07,5.02-3.08.36-5.82,1.66-8.66,2.75-3.57,1.38-6.67-1.02-9.94-1.2s-6.64,1.71-9.88.47c-3.76-1.44-7.49-1.98-10.73.81-1.8-1.99-3.41-2.4-5.17-.87-2.16-.23-2.34-4.77-.89-6.07.38-.37,1.47-.63,2.1-.26,2.95,1.76,5.85.64,8.8.83,7.4.47,15.35,1.75,20.72-1.11,1.14.19,3.01,2.11,4.44,1.55.82-.32,1.93-.83,3.14-1.91Z"/>
    <path class="cls-5" d="M304.28,168.04c-3.98,1.91-8.02.97-12.38,1.11-2.29.07-4.72.69-6.58-.51-.54.55-1.85,1.46-2.16.75-.19-.45-.7-1.78-1.22-1.88-4.88-.98-7.41,3.16-7.75,7.46-.16,2.09-.84,4.38.89,6.07l-.08,1.98c.64.66.47.95-.47.89-2.77-5.05-2.36-11.71,1.35-16.3,3.19-3.94,8.02-7.22,13.98-6.36,5.5.79,10.03,3.99,14.42,6.81Z"/>
    <path class="cls-4" d="M276.82,187.34c-.89-1-1.48-1.96-2.29-3.45l.47-.89c1.43.9,1.97,2.58,1.82,4.34Z"/>
  </g>
</svg>