<?xml version="1.0" encoding="UTF-8"?><svg id="Layer_1" xmlns="http://www.w3.org/2000/svg" xmlns:xlink="http://www.w3.org/1999/xlink" viewBox="0 0 1024 1024"><defs><style>.cls-1{fill:url(#linear-gradient-2);}.cls-2{stroke:#000;stroke-miterlimit:10;}.cls-3{fill:url(#linear-gradient-3);}.cls-4{fill:url(#linear-gradient);}.cls-5{fill:#fe9701;}</style><linearGradient id="linear-gradient" x1="330.4" y1="783.95" x2="332.71" y2="1621.22" gradientTransform="translate(144 -656)" gradientUnits="userSpaceOnUse"><stop offset="0" stop-color="#feba56"/><stop offset=".33" stop-color="#fe9801"/><stop offset=".68" stop-color="#fe9700"/><stop offset="1" stop-color="#e17b0c"/></linearGradient><linearGradient id="linear-gradient-2" x1="625.33" y1="707.64" x2="629.3" y2="1107.17" gradientTransform="translate(144 -656)" gradientUnits="userSpaceOnUse"><stop offset="0" stop-color="#fec46d"/><stop offset="1" stop-color="#fe9801"/></linearGradient><linearGradient id="linear-gradient-3" x1="549.99" y1="835.08" x2="551.36" y2="1125.2" gradientTransform="translate(144 -656)" gradientUnits="userSpaceOnUse"><stop offset="0" stop-color="#feb446"/><stop offset="1" stop-color="#fe9700"/></linearGradient></defs><rect class="cls-2" x="0" width="1024" height="1024" rx="100" ry="100"/><path class="cls-4" d="M723.48,603.58c6.06-23.54,24.92-37.41,42.22-50.97,30.1-14.99,61.93-16.03,94.35,2.27,17.08,12.7,48.9,43.91,43.5,73.93-34.42,191.64-201.07,334.09-393.27,347.17-227.56,15.48-425.83-146.33-458.52-368.84C18.98,383.96,163.64,171.28,386.81,121.92c44.18-2.11,83.23,28.57,93.98,70.11,10.33,44.74-12.23,89.95-54.59,107.67-71.8,14.46-131.23,62.7-162.97,118.58-42,73.96-43.75,155.13-11.78,226.87,44.45,99.77,145.5,157.44,252.92,147.52,103.98-9.6,192.17-84.54,219.11-189.1Z"/><path class="cls-1" d="M975.08,408.77c6.84,22.35-7.04,41.25-25.05,47.41-16.9,5.78-43.59-.15-50.11-21.29-46.49-150.78-163.6-270.08-315.86-314.83-17.57-11.92-22.87-32.12-14.02-51.07,8.67-17.09,28.33-26.5,49.11-19.82,169.43,54.46,303.37,188,355.93,359.61Z"/><path class="cls-3" d="M845,432.19c7.93,23.03-11.17,41.72-29.49,46.89-21.46,6.05-40.29-7.45-48.06-28.8-34.5-94.74-109.7-165.73-203.03-201.29-18.92-7.21-25.66-30.41-19.85-47.73,4.99-14.88,23.94-33.21,43.45-26.56,120.26,40.98,215.21,136.24,256.98,257.49Z"/><path class="cls-5" d="M691.67,498.98c-16.08,6.97-38.39,4.07-47.18-11.8-16.3-29.27-31.63-57.9-58.76-77.85l-26.59-19.62-19.19-10.29c-4.29-2.36-6.86-4.07-9.54-7.08-2.25-2.57-3.75-4.93-5.79-8.79-7.08-12.76-6-29.81,3.43-41.39,8.04-10.08,20.37-18.44,35.49-16.19,14.05,1.93,25.52,10.08,36.78,17.26,8.04,5.15,15.87,8.69,23.16,15.33,4.93,4.4,10.29,8.04,15.44,12.76l17.59,15.98,15.65,17.37c4.93,5.47,8.47,11.04,12.76,17.05,11.8,17.16,24.34,34.96,29.7,55.87,4.61,17.69-9.54,35.49-22.95,41.39Z"/></svg>