<?xml version="1.0" encoding="UTF-8"?><svg id="Layer_1" xmlns="http://www.w3.org/2000/svg" viewBox="0 0 1024 1024"><defs><style>.cls-1{fill:#fff;}.cls-2{fill:#ea7819;stroke:#000;stroke-miterlimit:10;}</style></defs><rect class="cls-2" x="0" width="1024" height="1024" rx="100" ry="100"/><path class="cls-1" d="M931.54,922.75l-165.81,1.1c.98-317.97-214.95-589.73-520-660.08-48.77-11.22-99.73-17.31-152.52-17.68l.98-164.84c469.28,2.56,835.77,383.08,837.36,841.5Z"/><path class="cls-1" d="M482.6,922.86c.58-219.73-171.97-392.72-389.84-391.71l-.3-166.29c303.82,3.68,553.68,243.52,554.62,557.11l-164.48.89Z"/><path class="cls-1" d="M319.7,808.61c-2.55,149.03-224.23,149.01-226.76,0,2.55-149.03,224.23-149.01,226.76,0Z"/></svg>