<?xml version="1.0" encoding="UTF-8"?><svg id="Layer_1" xmlns="http://www.w3.org/2000/svg" xmlns:xlink="http://www.w3.org/1999/xlink" viewBox="0 0 1024 1024"><defs><style>.cls-1{fill:#fff;}.cls-2{fill:url(#linear-gradient);}</style><linearGradient id="linear-gradient" x1="0" y1="512" x2="1024" y2="512" gradientUnits="userSpaceOnUse"><stop offset="0" stop-color="#ec6801"/><stop offset="1" stop-color="#a24a00"/></linearGradient></defs><rect class="cls-2" x="0" width="1024" height="1024" rx="100" ry="100"/><path class="cls-1" d="M670.09,972.79l-317.94-.02-73.55-.74c43.04-27.5,79.87-55.82,112.37-92.77,56.01-63.67,91.56-142.35,91.32-227.16,20.22,1.49,38.16,1.79,57.13.84,11.96,136.06,78.39,260.18,206.65,319.13l-75.99.72ZM526.25,823.93c6.44,0,11.85-5.98,12.88-11.64.75-4.08-3.79-13.62-8.45-13.67l-35.75-.39c-7.35-.08-13.2,7.42-12.45,14.14.6,5.38,6.14,11.58,12.46,11.58h31.31ZM548.6,882.35c9.03,0,14.82-5.68,14.43-14.4-.3-6.79-6.38-11.72-14.43-11.71l-76.04.12c-6.47,0-11.99,8.61-11.69,13.4.44,6.83,6.24,12.52,13.79,12.52l73.92.06ZM577.69,940.46c8.15,0,12.54-10.26,11.42-14.97-1.45-6.14-6.78-10.77-13.88-10.76l-127.14.12c-7.64,0-12.93,5.64-13.26,12.42-.24,4.84,4.5,13.32,11.51,13.31l131.34-.12Z"/><path class="cls-1" d="M527.19,110.36l-32.06-.1c-60.01-.19-116.27,20.44-168.86,48.46-36,20.42-68.39,43.38-99.86,71.07l-37.52-35.88c61.9-56.56,135.58-97.91,216.16-119.02,160.44-42.04,307.51,13.67,430.06,118.89l-34.86,35.06c-68.09-63.98-177.99-118.16-273.06-118.47Z"/><circle class="cls-1" cx="512.45" cy="516.56" r="88.97"/><path class="cls-1" d="M705.58,323.36c-74.98-65.25-172.83-95.86-270.26-65.59-43.18,13.41-80.64,36.35-115.81,65.14l-37.54-37.1c23.79-20.69,47.89-36.75,75.57-50.47,90.64-46.94,189.25-51.44,283.71-12.1,36.31,17.49,69.66,37.01,101.03,63.51l-36.69,36.6Z"/><path class="cls-1" d="M615.09,415.33c-65.01-62.52-140.08-64.33-204.73.19l-35.32-37.05c85.7-73.96,188.03-75.29,274.92.32l-34.86,36.54Z"/></svg>