<?xml version="1.0" encoding="UTF-8"?>
<svg id="Layer_1" data-name="Layer 1" xmlns="http://www.w3.org/2000/svg" viewBox="0 0 225 225">
  <defs>
    <style>
      .cls-1 {
        fill: #db7060;
      }
    </style>
  </defs>
  <path class="cls-1" d="M0,225V0h225v225H0ZM174.23,86.11l7.03-7.82c-38.25-38.12-100.15-37.66-137.74.25,2.74,2.7,4.69,4.64,7.02,7.73,34.01-34.23,89.22-34.72,123.68-.16ZM153.25,108.16c3.04-2.83,5.34-4.96,7.14-7.78-26.86-27.06-69.84-26.58-95.97.24l7.36,7.53c22.56-23.09,58.88-23.08,81.47,0ZM134.08,128.62l7.24-7.62c-15.78-16.93-41.88-16.9-57.71-.06l7.32,7.73c11.77-13.13,31.28-13.11,43.15-.04ZM131.53,156.1c0-10.49-8.5-18.99-18.99-18.99s-18.99,8.5-18.99,18.99,8.5,18.99,18.99,18.99,18.99-8.5,18.99-18.99Z"/>
</svg>